<svg width="300" height="600" viewBox="0 0 300 600" fill="none" xmlns="http://www.w3.org/2000/svg">
  <rect width="300" height="600" rx="30" fill="#0D1117"/>
  <rect x="15" y="15" width="270" height="570" rx="20" fill="#171E2B"/>
  <rect x="30" y="50" width="240" height="60" rx="10" fill="#232F3B"/>
  <text x="50" y="85" font-family="Arial" font-size="18" fill="white">Séries em Tendência</text>
  
  <!-- Item 1 -->
  <rect x="30" y="130" width="240" height="80" rx="10" fill="#232F3B"/>
  <rect x="45" y="145" width="50" height="50" rx="5" fill="#E85D04"/>
  <text x="110" y="165" font-family="Arial" font-size="16" fill="white">The Last of Us</text>
  <text x="110" y="185" font-family="Arial" font-size="12" fill="#AAAAAA">HBO - Drama</text>
  
  <!-- Item 2 -->
  <rect x="30" y="220" width="240" height="80" rx="10" fill="#232F3B"/>
  <rect x="45" y="235" width="50" height="50" rx="5" fill="#E85D04"/>
  <text x="110" y="255" font-family="Arial" font-size="16" fill="white">Stranger Things</text>
  <text x="110" y="275" font-family="Arial" font-size="12" fill="#AAAAAA">Netflix - Sci-Fi</text>
  
  <!-- Item 3 -->
  <rect x="30" y="310" width="240" height="80" rx="10" fill="#232F3B"/>
  <rect x="45" y="325" width="50" height="50" rx="5" fill="#E85D04"/>
  <text x="110" y="345" font-family="Arial" font-size="16" fill="white">Breaking Bad</text>
  <text x="110" y="365" font-family="Arial" font-size="12" fill="#AAAAAA">Netflix - Drama</text>
  
  <!-- Item 4 -->
  <rect x="30" y="400" width="240" height="80" rx="10" fill="#232F3B"/>
  <rect x="45" y="415" width="50" height="50" rx="5" fill="#E85D04"/>
  <text x="110" y="435" font-family="Arial" font-size="16" fill="white">Game of Thrones</text>
  <text x="110" y="455" font-family="Arial" font-size="12" fill="#AAAAAA">HBO - Fantasia</text>
  
  <!-- Navigation Bar -->
  <rect x="30" y="510" width="240" height="60" rx="10" fill="#232F3B"/>
  <circle cx="70" cy="540" r="15" fill="#E85D04"/>
  <circle cx="150" cy="540" r="15" fill="#555555"/>
  <circle cx="230" cy="540" r="15" fill="#555555"/>
</svg> 