<svg width="300" height="600" viewBox="0 0 300 600" fill="none" xmlns="http://www.w3.org/2000/svg">
  <rect width="300" height="600" rx="30" fill="#0D1117"/>
  <rect x="15" y="15" width="270" height="570" rx="20" fill="#171E2B"/>
  
  <!-- Header -->
  <rect x="30" y="50" width="240" height="60" rx="10" fill="#232F3B"/>
  <text x="50" y="85" font-family="Arial" font-size="18" fill="white">Detalhes da Série</text>
  
  <!-- Show Banner -->
  <rect x="30" y="130" width="240" height="120" rx="10" fill="#E85D04"/>
  <text x="50" y="200" font-family="Arial" font-weight="bold" font-size="22" fill="white">The Last of Us</text>
  <text x="50" y="225" font-family="Arial" font-size="14" fill="white">HBO - Drama</text>
  
  <!-- Rating -->
  <rect x="30" y="270" width="240" height="50" rx="10" fill="#232F3B"/>
  <text x="50" y="300" font-family="Arial" font-size="16" fill="white">Avaliação: 9.2/10</text>
  
  <!-- Trending Stats -->
  <rect x="30" y="340" width="240" height="80" rx="10" fill="#232F3B"/>
  <text x="50" y="365" font-family="Arial" font-size="16" fill="white">Tendência Semanal</text>
  <rect x="50" y="375" width="200" height="10" rx="5" fill="#333333"/>
  <rect x="50" y="375" width="180" height="10" rx="5" fill="#E85D04"/>
  <text x="50" y="405" font-family="Arial" font-size="12" fill="#AAAAAA">Subiu 4 posições esta semana</text>
  
  <!-- Synopsis -->
  <rect x="30" y="440" width="240" height="80" rx="10" fill="#232F3B"/>
  <text x="50" y="465" font-family="Arial" font-size="16" fill="white">Sinopse</text>
  <text x="50" y="485" font-family="Arial" font-size="12" fill="#AAAAAA" width="220">Vinte anos após o colapso da civilização, Joel é contratado para tirar Ellie de uma zona de quarentena...</text>
  
  <!-- Navigation Bar -->
  <rect x="30" y="540" width="240" height="40" rx="10" fill="#232F3B"/>
  <circle cx="70" cy="560" r="10" fill="#555555"/>
  <circle cx="150" cy="560" r="10" fill="#E85D04"/>
  <circle cx="230" cy="560" r="10" fill="#555555"/>
</svg> 